<svg width="210" height="82" viewBox="0 0 210 82" fill="none" xmlns="http://www.w3.org/2000/svg">
<path fill-rule="evenodd" clip-rule="evenodd" d="M55.5795 11.6541C59.1184 8.16367 64.8167 8.20297 68.3071 11.7418C75.444 18.9779 79.9612 28.9558 79.9612 39.9804C79.9612 44.951 75.9317 48.9804 70.9612 48.9804C65.9906 48.9804 61.9612 44.951 61.9612 39.9804C61.9612 33.9658 59.5078 28.4535 55.4917 24.3817C52.0013 20.8428 52.0406 15.1445 55.5795 11.6541Z" fill="url(#paint0_linear_1654_4195)"/>
<path fill-rule="evenodd" clip-rule="evenodd" d="M30.9805 9C30.9805 4.02944 35.0099 0 39.9805 0C51.0051 0 60.983 4.51718 68.219 11.6541C71.7579 15.1445 71.7972 20.8428 68.3068 24.3817C64.8164 27.9206 59.1181 27.9599 55.5792 24.4695C51.5073 20.4534 45.9951 18 39.9805 18C35.0099 18 30.9805 13.9706 30.9805 9Z" fill="url(#paint1_linear_1654_4195)"/>
<path fill-rule="evenodd" clip-rule="evenodd" d="M0 39.9804C0 17.8932 17.8932 0 39.9804 0C44.951 0 48.9804 4.02944 48.9804 9C48.9804 13.9706 44.951 18 39.9804 18C27.8343 18 18 27.8343 18 39.9804C18 45.995 20.4534 51.5073 24.4695 55.5791C27.9599 59.118 27.9206 64.8163 24.3817 68.3067C20.8428 71.7971 15.1445 71.7578 11.6541 68.2189C4.51718 60.9829 0 51.005 0 39.9804Z" fill="url(#paint2_linear_1654_4195)"/>
<path fill-rule="evenodd" clip-rule="evenodd" d="M11.6538 55.5792C15.1442 52.0404 20.8426 52.0011 24.3814 55.4915C28.4533 59.5075 33.9655 61.9609 39.9802 61.9609C44.9507 61.9609 48.9802 65.9904 48.9802 70.9609C48.9802 75.9315 44.9507 79.9609 39.9802 79.9609C28.9555 79.9609 18.9776 75.4438 11.7416 68.3069C8.20273 64.8165 8.16343 59.1181 11.6538 55.5792Z" fill="url(#paint3_linear_1654_4195)"/>
<path fill-rule="evenodd" clip-rule="evenodd" d="M70.9609 30.9805C75.9314 30.9805 79.9609 35.0099 79.9609 39.9805C79.9609 62.0677 62.0677 79.9609 39.9805 79.9609C35.0099 79.9609 30.9805 75.9314 30.9805 70.9609C30.9805 65.9903 35.0099 61.9609 39.9805 61.9609C52.1266 61.9609 61.9609 52.1266 61.9609 39.9805C61.9609 35.0099 65.9903 30.9805 70.9609 30.9805Z" fill="url(#paint4_linear_1654_4195)"/>
<path fill-rule="evenodd" clip-rule="evenodd" d="M70.9609 30.9805C75.9315 30.9805 79.9609 35.0099 79.9609 39.9805V70.9609C79.9609 75.9314 75.9315 79.9609 70.9609 79.9609C65.9904 79.9609 61.9609 75.9314 61.9609 70.9609V39.9805C61.9609 35.0099 65.9904 30.9805 70.9609 30.9805Z" fill="url(#paint5_linear_1654_4195)"/>
<g clip-path="url(#clip0_1654_4195)">
<path fill-rule="evenodd" clip-rule="evenodd" d="M55.5795 11.6541C59.1184 8.16367 64.8167 8.20297 68.3071 11.7418C75.444 18.9779 79.9612 28.9558 79.9612 39.9804C79.9612 44.951 75.9317 48.9804 70.9612 48.9804C65.9906 48.9804 61.9612 44.951 61.9612 39.9804C61.9612 33.9658 59.5078 28.4535 55.4917 24.3817C52.0013 20.8428 52.0406 15.1445 55.5795 11.6541Z" fill="url(#paint6_linear_1654_4195)"/>
</g>
<path d="M99.8203 34H103.78L105.868 28.2401H116.992L119.08 34H123.04L113.68 8.80005H109.18L99.8203 34ZM107.092 24.82L111.34 13.12H111.52L115.768 24.82H107.092Z" fill="#94A3B8"/>
<path d="M123.872 34H127.292V8.80005H123.872V34Z" fill="#94A3B8"/>
<path d="M130.845 34H134.265V8.80005H130.845V34Z" fill="#94A3B8"/>
<path d="M144.657 34.3601C146.745 34.3601 148.833 33.496 150.057 31.48H150.237L150.777 34H153.477V14.92H150.057V26.4401C150.057 28.9601 148.077 31.12 145.377 31.12C142.857 31.12 141.057 29.5001 141.057 26.4401V14.92H137.637V26.62C137.637 31.3 140.517 34.3601 144.657 34.3601Z" fill="#94A3B8"/>
<path d="M156.668 34H160.088V22.8401C160.088 20.14 162.068 18.1601 165.128 18.1601H167.108V14.92H164.948C162.788 14.92 161.168 15.64 160.088 17.4401H159.908L159.368 14.92H156.668V34Z" fill="#94A3B8"/>
<path d="M175.89 34.3601C180.03 34.3601 182.91 32.02 184.17 28.78H180.39C179.31 30.4 177.87 31.12 175.89 31.12C172.83 31.12 170.67 29.1401 170.454 25.5401H184.35C184.35 25.5401 184.53 24.64 184.53 23.5601C184.53 19.24 181.47 14.5601 175.71 14.5601C170.49 14.5601 166.89 18.16 166.89 24.46C166.89 30.76 170.49 34.3601 175.89 34.3601ZM170.454 22.6601C170.85 19.6001 172.83 17.8 175.71 17.8C178.59 17.8 180.57 19.6001 181.002 22.6601H170.454Z" fill="#94A3B8"/>
<path d="M102.52 74H107.92V65.3601H110.8L116.56 74H122.68L116.56 65C116.56 65 121.78 63.38 121.78 57.08C121.78 52.04 118.36 48.8 113.32 48.8H102.52V74ZM107.92 60.5V53.6601H112.96C114.94 53.6601 116.38 54.92 116.38 57.08C116.38 59.24 114.94 60.5 112.96 60.5H107.92Z" fill="#334155"/>
<path d="M132.006 74.3601C137.406 74.3601 139.926 71.3001 140.826 68.0601H135.426C134.706 69.1401 133.986 69.8601 132.006 69.8601C129.486 69.8601 128.226 68.2401 127.866 66.0801H141.006C141.006 66.0801 141.186 65.1801 141.186 64.1001C141.186 58.5201 137.586 54.5601 132.006 54.5601C126.246 54.5601 122.646 58.16 122.646 64.46C122.646 70.76 126.246 74.3601 132.006 74.3601ZM127.866 62.3C128.406 60.5 129.666 59.0601 132.006 59.0601C134.346 59.0601 135.606 60.68 135.966 62.3H127.866Z" fill="#334155"/>
<path d="M143.105 81.2001H148.145V72.0201H148.325C149.045 72.92 150.665 74.3601 153.545 74.3601C158.405 74.3601 161.825 70.9401 161.825 64.46C161.825 57.98 158.405 54.5601 153.545 54.5601C150.845 54.5601 149.225 55.82 148.145 57.08H147.965L147.425 54.92H143.105V81.2001ZM152.465 69.8601C150.125 69.8601 148.145 68.24 148.145 64.46C148.145 60.68 150.125 59.0601 152.465 59.0601C154.805 59.0601 156.785 60.68 156.785 64.46C156.785 68.24 154.805 69.8601 152.465 69.8601Z" fill="#334155"/>
<path d="M172.213 74.3601C177.973 74.3601 181.573 70.76 181.573 64.46C181.573 58.16 177.973 54.5601 172.213 54.5601C166.453 54.5601 162.853 58.16 162.853 64.46C162.853 70.76 166.453 74.3601 172.213 74.3601ZM172.213 69.8601C169.873 69.8601 167.893 68.24 167.893 64.46C167.893 60.68 169.873 59.0601 172.213 59.0601C174.553 59.0601 176.533 60.68 176.533 64.46C176.533 68.24 174.553 69.8601 172.213 69.8601Z" fill="#334155"/>
<path d="M183.488 74H188.528V64.46C188.528 61.58 190.328 59.78 193.388 59.78H195.368V54.92H193.028C191.228 54.92 189.608 55.46 188.528 57.08H188.348L187.808 54.92H183.488V74Z" fill="#334155"/>
<path d="M204.138 74H207.738V69.32H205.038C203.958 69.32 203.238 68.6 203.238 67.5201V59.6001H207.738V54.92H203.238V49.88H198.918L198.198 54.92H195.138V59.6001H198.198V68.4201C198.198 72.0201 200.178 74 204.138 74Z" fill="#334155"/>
<defs>
<linearGradient id="paint0_linear_1654_4195" x1="66" y1="24" x2="72" y2="37.5" gradientUnits="userSpaceOnUse">
<stop stop-color="#7E22CE"/>
<stop offset="1" stop-color="#8B5CF6"/>
</linearGradient>
<linearGradient id="paint1_linear_1654_4195" x1="67" y1="23.5" x2="44.5" y2="9" gradientUnits="userSpaceOnUse">
<stop stop-color="#EF4444"/>
<stop offset="1" stop-color="#DC2626"/>
</linearGradient>
<linearGradient id="paint2_linear_1654_4195" x1="9" y1="35" x2="13.5" y2="62" gradientUnits="userSpaceOnUse">
<stop stop-color="#22C55E"/>
<stop offset="1" stop-color="#15803D"/>
</linearGradient>
<linearGradient id="paint3_linear_1654_4195" x1="12" y1="55.5" x2="36" y2="73" gradientUnits="userSpaceOnUse">
<stop stop-color="#94A3B8"/>
<stop offset="0.958345" stop-color="#64748B"/>
<stop offset="1" stop-color="#64748B"/>
</linearGradient>
<linearGradient id="paint4_linear_1654_4195" x1="71" y1="55.4315" x2="55.4707" y2="70.9609" gradientUnits="userSpaceOnUse">
<stop stop-color="#D97706"/>
<stop offset="1" stop-color="#FBBF24"/>
</linearGradient>
<linearGradient id="paint5_linear_1654_4195" x1="73" y1="136" x2="76.5634" y2="135.64" gradientUnits="userSpaceOnUse">
<stop stop-color="#FBBF24"/>
<stop offset="1" stop-color="#FBBF24"/>
</linearGradient>
<linearGradient id="paint6_linear_1654_4195" x1="66" y1="24" x2="72" y2="37.5" gradientUnits="userSpaceOnUse">
<stop stop-color="#7E22CE"/>
<stop offset="1" stop-color="#8B5CF6"/>
</linearGradient>
<clipPath id="clip0_1654_4195">
<rect width="18" height="20" fill="white" transform="translate(62 30)"/>
</clipPath>
</defs>
</svg>
